<?xml version="1.0" standalone="no"?>
<!DOCTYPE svg PUBLIC "-//W3C//DTD SVG 20010904//EN"
 "http://www.w3.org/TR/2001/REC-SVG-20010904/DTD/svg10.dtd">
<svg version="1.0" xmlns="http://www.w3.org/2000/svg"
 width="1024.000000pt" height="1024.000000pt" viewBox="0 0 1024.000000 1024.000000"
 preserveAspectRatio="xMidYMid meet">

<g transform="translate(0.000000,1024.000000) scale(0.100000,-0.100000)"
fill="#facc15" stroke="none">
<path d="M3490 7630 l0 -160 -190 0 -190 0 0 -1275 0 -1275 34 0 c19 0 94 6
168 14 601 65 1058 36 1403 -89 96 -34 155 -73 155 -102 0 -7 19 -33 43 -57
31 -33 56 -48 100 -61 163 -47 320 2 391 122 27 44 38 53 105 81 220 93 523
141 881 142 170 0 479 -19 630 -39 41 -6 87 -11 103 -11 l27 0 0 1275 0 1275
-185 0 -185 0 0 162 0 161 -217 -7 c-120 -3 -265 -13 -323 -21 -410 -59 -730
-213 -994 -479 l-109 -110 -50 57 c-106 122 -309 271 -479 351 -292 138 -626
206 -1010 206 l-108 0 0 -160z m355 5 c210 -13 533 -100 702 -190 196 -104
395 -265 473 -383 l30 -45 0 -1049 c0 -641 -4 -1048 -9 -1048 -5 0 -20 15 -32
33 -13 17 -52 65 -88 106 -191 215 -471 372 -788 441 -108 23 -324 50 -410 50
l-63 0 0 1051 0 1050 43 -5 c23 -3 87 -8 142 -11z m2763 -1036 l2 -1046 -142
-6 c-361 -17 -649 -104 -903 -273 -126 -84 -253 -202 -332 -309 l-22 -30 -1
1034 0 1033 64 82 c178 229 429 388 773 490 120 36 429 78 533 72 l25 -1 3
-1046z m-3120 -230 l2 -956 173 -7 c369 -15 623 -82 871 -231 103 -62 201
-134 193 -141 -2 -2 -21 5 -43 15 -65 31 -243 88 -344 110 -170 36 -370 54
-535 48 -141 -5 -397 -36 -475 -57 -19 -6 -38 -10 -42 -10 -5 0 -8 490 -8
1089 0 862 3 1090 13 1095 6 2 53 4 102 3 l90 -2 3 -956z m3500 -131 l2 -1088
-27 0 c-16 0 -62 6 -103 14 -119 23 -370 46 -493 46 -263 0 -564 -58 -802
-154 -49 -20 -90 -35 -91 -33 -6 6 133 105 222 158 165 100 414 183 621 208
50 6 175 14 277 18 l186 6 0 959 0 959 103 -3 102 -3 3 -1087z"/>
<path d="M3916 4094 c-200 -45 -337 -163 -422 -364 -51 -121 -67 -228 -61
-390 3 -75 13 -161 21 -194 55 -200 192 -344 378 -397 105 -30 304 -33 408 -5
126 33 189 57 194 74 9 28 30 243 31 302 0 49 -2 55 -21 58 -17 2 -28 -9 -54
-60 -97 -186 -194 -261 -340 -262 -63 -1 -84 4 -132 27 -100 49 -165 151 -194
308 -20 104 -14 368 10 473 49 217 176 337 340 324 124 -10 198 -71 275 -225
33 -67 46 -83 64 -83 50 0 52 8 38 137 -22 204 -18 192 -85 226 -85 43 -147
57 -271 62 -78 3 -130 0 -179 -11z"/>
<path d="M1220 4065 c0 -31 4 -36 45 -54 77 -34 75 -19 75 -593 0 -379 -3
-509 -13 -527 -6 -14 -33 -36 -59 -49 -43 -22 -48 -28 -48 -58 l0 -34 429 0
428 0 6 38 c4 20 13 106 22 191 13 127 14 155 3 162 -26 17 -38 8 -72 -59 -47
-87 -115 -165 -169 -191 -36 -17 -62 -21 -150 -21 l-107 0 0 525 c0 469 2 528
17 559 17 36 63 66 102 66 18 0 21 6 21 40 l0 40 -265 0 -265 0 0 -35z"/>
<path d="M8656 3940 c-49 -92 -146 -220 -202 -266 -36 -30 -44 -42 -44 -70 0
-33 0 -33 53 -36 l52 -3 5 -345 c5 -335 6 -346 28 -387 12 -24 41 -55 64 -70
39 -26 49 -28 147 -28 92 0 112 3 151 24 70 36 100 69 100 109 0 31 -2 34 -25
28 -53 -14 -141 -17 -167 -7 -56 21 -59 41 -56 373 l3 303 120 2 120 1 3 51 3
51 -125 0 -126 0 0 170 0 170 -34 0 c-31 0 -36 -4 -70 -70z"/>
<path d="M2554 3680 c-119 -25 -231 -117 -292 -239 -35 -70 -36 -79 -40 -196
-5 -135 5 -199 43 -279 76 -161 225 -244 421 -234 76 4 101 10 157 38 79 39
159 113 155 144 -4 28 -32 32 -65 8 -90 -62 -240 -77 -328 -31 -56 28 -109 90
-125 147 -6 20 -14 76 -17 125 l-6 87 283 0 283 0 -6 98 c-11 171 -83 279
-212 318 -62 18 -196 26 -251 14z m143 -90 c48 -29 66 -72 71 -172 l4 -88
-155 0 -156 0 6 38 c26 187 127 285 230 222z"/>
<path d="M4890 3681 c-69 -13 -114 -35 -164 -81 -73 -67 -81 -163 -19 -222 49
-47 124 -63 141 -31 6 9 8 51 5 92 -6 96 12 130 82 157 47 18 48 18 92 -6 68
-36 95 -90 101 -205 l5 -93 -64 -7 c-121 -13 -259 -52 -316 -90 -94 -63 -142
-161 -127 -260 12 -86 88 -171 172 -195 102 -28 230 -1 307 64 l39 33 17 -31
c9 -17 34 -41 55 -53 98 -57 294 2 294 89 0 26 -3 28 -40 28 -46 0 -86 16 -95
39 -4 9 -10 136 -14 282 l-6 265 -33 67 c-37 75 -74 108 -152 138 -59 22 -209
33 -280 20z m213 -744 c-60 -63 -156 -87 -208 -53 -31 20 -48 77 -43 138 9 87
93 151 219 166 l54 7 3 -114 c3 -113 2 -115 -25 -144z"/>
<path d="M6115 3680 c-42 -13 -103 -66 -136 -119 l-29 -45 0 82 c0 80 -1 82
-24 82 -13 0 -51 -7 -83 -15 -32 -8 -96 -18 -143 -22 l-85 -8 -3 -30 c-3 -26
2 -33 29 -45 18 -8 42 -28 53 -43 20 -27 21 -41 21 -332 0 -285 -1 -304 -19
-324 -11 -12 -33 -25 -50 -29 -27 -7 -31 -13 -34 -45 l-3 -37 240 0 241 0 0
34 c0 35 -13 46 -51 46 -10 0 -33 13 -51 29 l-33 29 -3 224 c-4 246 1 278 50
334 74 84 135 79 189 -16 25 -45 39 -59 54 -57 28 3 61 59 68 114 15 117 -31
193 -120 199 -26 2 -61 -1 -78 -6z"/>
<path d="M6665 3673 c-27 -8 -95 -20 -150 -27 l-100 -11 -3 -32 c-3 -27 1 -33
21 -39 32 -7 61 -40 76 -83 7 -22 11 -128 11 -303 0 -304 -2 -314 -70 -344
-35 -16 -40 -22 -40 -51 l0 -33 235 0 235 0 0 34 c0 35 -13 46 -52 46 -11 0
-33 14 -49 31 l-29 31 0 245 c0 268 1 275 64 341 84 90 183 89 250 -2 20 -26
21 -43 24 -300 3 -268 3 -272 -19 -300 -12 -16 -37 -35 -56 -42 -28 -12 -33
-19 -33 -49 l0 -35 235 0 235 0 0 35 c0 32 -3 35 -40 45 -69 18 -70 23 -73
331 -3 259 -5 277 -26 333 -29 72 -86 137 -149 167 -37 17 -66 22 -132 23 -74
1 -92 -3 -142 -27 -52 -25 -70 -42 -137 -129 -4 -4 -6 30 -6 75 0 94 -1 95
-80 70z"/>
<path d="M7840 3675 c-81 -23 -129 -50 -187 -107 -57 -56 -107 -152 -123 -237
-46 -241 70 -498 258 -572 84 -33 252 -33 335 0 113 45 202 140 166 176 -13
13 -24 10 -98 -27 -77 -40 -88 -43 -160 -42 -47 1 -90 7 -113 18 -91 40 -145
139 -155 284 l-6 82 282 0 281 0 0 59 c0 175 -63 287 -195 347 -69 32 -206 41
-285 19z m182 -104 c34 -38 48 -88 48 -173 l0 -68 -151 0 -152 0 7 50 c14 105
61 190 120 216 45 20 96 10 128 -25z"/>
</g>
</svg>
